# xmcd
#
# Track frame offsets:
#	150
#	15567
#	32525
#	52335
#
# Disc length: 889 seconds
# Revision: 0
# Processed by: cddbd v1.5.2PL0 Copyright (c) Steve Scherf et al.
# Submitted via: dBpowerAMP V12.0
#
DISCID=2b037704
DTITLE=Rascal Flatts - Rewind EP
DYEAR=2002
DGENRE=Rock
TTITLE0=Rewind
TTITLE1=Why Wait
TTITLE2=Come Wake Me Up
TTITLE3=Dancin' On My Grave
EXTD=
EXTT0=
EXTT1=
EXTT2=
EXTT3=
PLAYORDER=
